<svg width="47" height="50" viewBox="0 0 47 50" fill="none" xmlns="http://www.w3.org/2000/svg">
<path d="M23.5002 25C24.5772 25 25.4996 24.5917 26.2673 23.775C27.0337 22.9597 27.4168 21.9792 27.4168 20.8333C27.4168 19.6875 27.0337 18.7062 26.2673 17.8896C25.4996 17.0743 24.5772 16.6667 23.5002 16.6667C22.4231 16.6667 21.5014 17.0743 20.735 17.8896C19.9673 18.7062 19.5835 19.6875 19.5835 20.8333C19.5835 21.9792 19.9673 22.9597 20.735 23.775C21.5014 24.5917 22.4231 25 23.5002 25ZM23.5002 40.3125C27.4821 36.4236 30.4359 32.8903 32.3616 29.7125C34.2873 26.5361 35.2502 23.7153 35.2502 21.25C35.2502 17.4653 34.1156 14.366 31.8466 11.9521C29.5788 9.53957 26.7967 8.33332 23.5002 8.33332C20.2036 8.33332 17.4208 9.53957 15.1518 11.9521C12.884 14.366 11.7502 17.4653 11.7502 21.25C11.7502 23.7153 12.713 26.5361 14.6387 29.7125C16.5644 32.8903 19.5182 36.4236 23.5002 40.3125ZM23.5002 45.8333C18.2453 41.0764 14.3208 36.6576 11.7267 32.5771C9.13122 28.4979 7.8335 24.7222 7.8335 21.25C7.8335 16.0417 9.40865 11.8924 12.559 8.80207C15.708 5.7118 19.355 4.16666 23.5002 4.16666C27.6453 4.16666 31.2924 5.7118 34.4414 8.80207C37.5917 11.8924 39.1668 16.0417 39.1668 21.25C39.1668 24.7222 37.8698 28.4979 35.2756 32.5771C32.6802 36.6576 28.755 41.0764 23.5002 45.8333Z" fill="#CC5404"/>
</svg>
