<svg width="43" height="43" viewBox="0 0 43 43" fill="none" xmlns="http://www.w3.org/2000/svg">
<g clip-path="url(#clip0_1_52)">
<path d="M39.4168 23.2917H35.8335V12.9681L21.6292 25.6889L7.16683 12.9287V34.0417H25.0835V37.625H5.37516C4.89998 37.625 4.44427 37.4362 4.10826 37.1002C3.77226 36.7642 3.5835 36.3085 3.5835 35.8333V7.16667C3.5835 6.69149 3.77226 6.23577 4.10826 5.89977C4.44427 5.56376 4.89998 5.375 5.37516 5.375H37.6252C38.1003 5.375 38.5561 5.56376 38.8921 5.89977C39.2281 6.23577 39.4168 6.69149 39.4168 7.16667V23.2917ZM8.08237 8.95833L21.6095 20.8944L34.9412 8.95833H8.08237ZM37.6252 32.25H43.0002V35.8333H37.6252V41.2083H34.0418V35.8333H28.6668V32.25H34.0418V26.875H37.6252V32.25Z" fill="#CC5404"/>
</g>
<defs>
<clipPath id="clip0_1_52">
<rect width="43" height="43" fill="white"/>
</clipPath>
</defs>
</svg>
