<svg width="25" height="24" viewBox="0 0 25 24" fill="none" xmlns="http://www.w3.org/2000/svg">
<path d="M22.9168 13V6C22.9168 5.46957 22.6973 4.96086 22.3066 4.58579C21.9159 4.21071 21.386 4 20.8335 4H4.16683C3.6143 4 3.08439 4.21071 2.69369 4.58579C2.30299 4.96086 2.0835 5.46957 2.0835 6V18C2.0835 19.1 3.021 20 4.16683 20H12.5002" stroke="#CC5404" stroke-width="2" stroke-linecap="round" stroke-linejoin="round"/>
<path d="M22.9168 7L13.5731 12.7C13.2515 12.8934 12.8797 12.996 12.5002 12.996C12.1207 12.996 11.7488 12.8934 11.4272 12.7L2.0835 7M19.7918 16V22M16.6668 19H22.9168" stroke="#CC5404" stroke-width="2" stroke-linecap="round" stroke-linejoin="round"/>
</svg>
