<svg width="43" height="43" viewBox="0 0 43 43" fill="none" xmlns="http://www.w3.org/2000/svg">
<g clip-path="url(#clip0_1_48)">
<path d="M12.2855 4.38061C14.5483 6.03074 16.2612 8.34916 17.7196 10.4794L18.8627 12.16C19.2176 12.6788 19.3801 13.3054 19.3218 13.9313C19.2636 14.5572 18.9883 15.1431 18.5437 15.5875L16.1142 18.017L16.3705 18.5617C16.9975 19.8319 18.0797 21.6612 19.7083 23.2917C20.8329 24.3993 22.1007 25.3513 23.478 26.1225L24.1355 26.4754L24.7214 26.7657L24.983 26.8857L27.4107 24.4562C27.8569 24.0107 28.4453 23.7359 29.0734 23.6799C29.7014 23.6239 30.3292 23.7903 30.8471 24.1499L32.6639 25.4094C34.7279 26.8607 36.8832 28.5144 38.5585 30.6608C38.848 31.0333 39.0322 31.4767 39.0918 31.9448C39.1514 32.4128 39.0841 32.8882 38.8971 33.3214C37.3975 36.8205 33.6027 39.8001 29.6557 39.6532L29.1182 39.6245L28.7007 39.5887L28.2385 39.5349L27.735 39.4668L27.1885 39.3754L26.6045 39.2608L25.9845 39.1228L25.3288 38.9544L24.639 38.7573L23.9187 38.5244C20.6113 37.4028 16.4135 35.1991 12.1063 30.8919C7.80092 26.5865 5.59717 22.3887 4.47558 19.0812L4.24267 18.361L4.04558 17.6712L3.87717 17.0154L3.73742 16.3955C3.69705 16.2014 3.65942 16.0067 3.62454 15.8114L3.53496 15.265L3.46329 14.7615L3.41133 14.2993L3.3755 13.8818L3.34683 13.3443C3.20171 9.40982 6.2135 5.5882 9.6965 4.09574C10.1157 3.91472 10.5748 3.8458 11.0287 3.89575C11.4825 3.94569 11.9156 4.11278 12.2855 4.38061ZM10.6246 7.61995C8.70392 8.62328 6.84417 10.9166 6.92838 13.2117L6.96421 13.7994L7.00362 14.1667L7.05558 14.5788L7.12725 15.0321L7.21862 15.5284L7.33508 16.0623L7.47842 16.6356L7.65042 17.243L7.85467 17.8844C7.92992 18.103 8.00875 18.3269 8.09475 18.5563L8.37067 19.2586L8.686 19.9878C9.81117 22.4639 11.6458 25.3628 14.6433 28.3585C17.639 31.3542 20.5379 33.1906 23.014 34.3158L23.7432 34.6311L24.4455 34.907C24.6748 34.993 24.8988 35.0719 25.1174 35.1471L25.7588 35.3514L26.368 35.5234L26.9395 35.6667L27.4734 35.7832L27.9697 35.8745L28.4248 35.9462L28.8369 35.9999L29.2024 36.0358L29.79 36.0716C32.0547 36.1558 34.366 34.3068 35.3657 32.4112C34.09 30.9152 32.5062 29.6879 30.7593 28.4517L29.4192 27.5182L29.0787 27.8747L28.3513 28.6684L27.9661 29.0734C26.9162 30.143 25.6907 31.0514 24.2215 30.4583L23.8166 30.2881L23.3221 30.0659L23.0462 29.9352L22.4406 29.6324L21.7759 29.274C20.0938 28.3379 18.5466 27.1777 17.1767 25.8251C15.8241 24.4552 14.6639 22.908 13.7277 21.2259L13.3694 20.5629L13.0648 19.9556L12.7137 19.1852L12.5417 18.7767C11.9845 17.3989 12.7513 16.2361 13.7313 15.2292L14.1327 14.835L15.1306 13.9159L15.489 13.5754L14.6415 12.3338C13.382 10.5063 12.1511 8.85799 10.6228 7.61816L10.6246 7.61995ZM26.8625 10.8217L27.0703 10.8449C28.3745 11.075 29.5723 11.712 30.4922 12.6647C31.412 13.6174 32.0067 14.8369 32.1909 16.1483C32.2565 16.6019 32.1459 17.0634 31.8816 17.4379C31.6174 17.8124 31.2197 18.0714 30.7703 18.1616C30.3209 18.2518 29.854 18.1664 29.4657 17.9228C29.0774 17.6793 28.7973 17.2962 28.6828 16.8524L28.6416 16.6464C28.5695 16.1323 28.3501 15.6502 28.0099 15.2582C27.6697 14.8661 27.2232 14.581 26.7245 14.4372L26.4468 14.3745C25.9969 14.2948 25.5945 14.0462 25.3218 13.6796C25.0491 13.3129 24.9269 12.856 24.9799 12.4022C25.033 11.9484 25.2575 11.532 25.6074 11.2382C25.9574 10.9444 26.4063 10.7954 26.8625 10.8217ZM26.875 5.37499C29.7261 5.37499 32.4604 6.50758 34.4764 8.52359C36.4924 10.5396 37.625 13.2739 37.625 16.125C37.6245 16.5816 37.4496 17.0209 37.1361 17.3529C36.8227 17.685 36.3942 17.8848 35.9383 17.9116C35.4825 17.9384 35.0336 17.79 34.6834 17.4969C34.3332 17.2038 34.1081 16.7881 34.0542 16.3346L34.0417 16.125C34.0423 14.3054 33.3505 12.5538 32.1066 11.2257C30.8628 9.89768 29.1601 9.09278 27.3444 8.97445L26.875 8.95832C26.3998 8.95832 25.9441 8.76956 25.6081 8.43356C25.2721 8.09755 25.0833 7.64184 25.0833 7.16666C25.0833 6.69148 25.2721 6.23576 25.6081 5.89976C25.9441 5.56375 26.3998 5.37499 26.875 5.37499Z" fill="#CC5404"/>
</g>
<defs>
<clipPath id="clip0_1_48">
<rect width="43" height="43" fill="white"/>
</clipPath>
</defs>
</svg>
