<svg width="27" height="25" viewBox="0 0 27 25" fill="none" xmlns="http://www.w3.org/2000/svg">
<g clip-path="url(#clip0_1_7)">
<path d="M7.71393 2.54682C9.13481 3.5062 10.2103 4.85412 11.1261 6.09266L11.8438 7.06974C12.0667 7.37137 12.1687 7.73566 12.1321 8.09956C12.0955 8.46346 11.9227 8.80408 11.6436 9.06245L10.1181 10.4749L10.2789 10.7916C10.6727 11.5302 11.3522 12.5937 12.3748 13.5416C13.0809 14.1856 13.877 14.7391 14.7418 15.1874L15.1547 15.3927L15.5226 15.5614L15.6868 15.6312L17.2112 14.2187C17.4913 13.9596 17.8608 13.7999 18.2552 13.7674C18.6495 13.7348 19.0437 13.8315 19.3689 14.0406L20.5097 14.7729C21.8057 15.6166 23.1591 16.5781 24.2109 17.826C24.3928 18.0426 24.5084 18.3004 24.5458 18.5725C24.5832 18.8446 24.541 19.121 24.4236 19.3729C23.4819 21.4072 21.0992 23.1395 18.6208 23.0541L18.2833 23.0374L18.0212 23.0166L17.7309 22.9854L17.4148 22.9458L17.0717 22.8927L16.7049 22.826L16.3157 22.7458L15.9039 22.6479L15.4708 22.5333L15.0186 22.3979C12.9418 21.7458 10.3059 20.4645 7.60143 17.9604C4.89806 15.4572 3.51431 13.0166 2.81006 11.0937L2.66381 10.6749L2.54006 10.2739L2.43431 9.89266L2.34656 9.53224C2.32121 9.41936 2.29758 9.30615 2.27568 9.19266L2.21943 8.87495L2.17443 8.58224L2.14181 8.31349L2.11931 8.07078L2.10131 7.75828C2.01018 5.47078 3.90131 3.24891 6.08831 2.3812C6.35153 2.27596 6.63978 2.23589 6.92478 2.26492C7.20977 2.29396 7.48172 2.39111 7.71393 2.54682ZM6.67106 4.43016C5.46506 5.01349 4.29731 6.34682 4.35018 7.6812L4.37268 8.02287L4.39743 8.23641L4.43006 8.47599L4.47506 8.73953L4.53243 9.02807L4.60556 9.33849L4.69556 9.67182L4.80356 10.0249L4.93181 10.3979C4.97906 10.525 5.02856 10.6552 5.08256 10.7885L5.25581 11.1968L5.45381 11.6208C6.16031 13.0604 7.31231 14.7458 9.19443 16.4874C11.0754 18.2291 12.8957 19.2968 14.4504 19.951L14.9083 20.1343L15.3493 20.2947C15.4933 20.3447 15.6339 20.3906 15.7712 20.4343L16.1739 20.5531L16.5564 20.6531L16.9153 20.7364L17.2506 20.8041L17.5622 20.8572L17.8479 20.8989L18.1067 20.9302L18.3362 20.951L18.7052 20.9718C20.1272 21.0208 21.5784 19.9458 22.2062 18.8437C21.4052 17.9739 20.4107 17.2604 19.3138 16.5416L18.4723 15.9989L18.2586 16.2062L17.8018 16.6677L17.5599 16.9031C16.9007 17.5249 16.1312 18.0531 15.2087 17.7083L14.9544 17.6093L14.6439 17.4802L14.4707 17.4041L14.0904 17.2281L13.6731 17.0197C12.6168 16.4755 11.6453 15.8009 10.7852 15.0145C9.9359 14.2181 9.20737 13.3186 8.61956 12.3406L8.39456 11.9552L8.20331 11.602L7.98281 11.1541L7.87481 10.9166C7.52493 10.1156 8.00643 9.43953 8.62181 8.85412L8.87381 8.62495L9.50043 8.09057L9.72543 7.89266L9.19331 7.17078C8.40243 6.10828 7.62956 5.14995 6.66993 4.42912L6.67106 4.43016ZM16.8669 6.29162L16.9974 6.30516C17.8163 6.4389 18.5685 6.80927 19.1461 7.36316C19.7236 7.91705 20.097 8.62603 20.2127 9.38849C20.2539 9.65222 20.1844 9.92055 20.0185 10.1383C19.8526 10.356 19.6028 10.5066 19.3207 10.559C19.0385 10.6115 18.7454 10.5618 18.5016 10.4202C18.2577 10.2786 18.0818 10.0559 18.0099 9.79787L17.9841 9.67807C17.9388 9.37922 17.801 9.0989 17.5874 8.87098C17.3738 8.64305 17.0935 8.47728 16.7803 8.3937L16.6059 8.35724C16.3234 8.31088 16.0708 8.16634 15.8995 7.95318C15.7283 7.74003 15.6516 7.47436 15.6849 7.21052C15.7182 6.94667 15.8592 6.70459 16.0789 6.53378C16.2986 6.36298 16.5805 6.27635 16.8669 6.29162ZM16.8748 3.12495C18.665 3.12495 20.3819 3.78343 21.6478 4.95553C22.9136 6.12764 23.6248 7.71735 23.6248 9.37495C23.6245 9.64045 23.5147 9.89582 23.3179 10.0889C23.121 10.2819 22.852 10.3981 22.5657 10.4137C22.2795 10.4292 21.9976 10.343 21.7777 10.1726C21.5579 10.0022 21.4165 9.76047 21.3827 9.49682L21.3748 9.37495C21.3752 8.31705 20.9408 7.29866 20.1598 6.52654C19.3788 5.75442 18.3097 5.28646 17.1696 5.21766L16.8748 5.20828C16.5764 5.20828 16.2903 5.09854 16.0793 4.90319C15.8683 4.70784 15.7498 4.44288 15.7498 4.16662C15.7498 3.89035 15.8683 3.6254 16.0793 3.43005C16.2903 3.2347 16.5764 3.12495 16.8748 3.12495Z" fill="#CC5404"/>
</g>
<defs>
<clipPath id="clip0_1_7">
<rect width="27" height="25" fill="white"/>
</clipPath>
</defs>
</svg>
