<svg width="27" height="28" viewBox="0 0 27 28" fill="none" xmlns="http://www.w3.org/2000/svg">
<path d="M24.3951 3.46714C24.161 3.26144 23.8775 3.12535 23.5748 3.07336C23.2721 3.02136 22.9615 3.05539 22.676 3.17183L3.20642 11.1015C2.86493 11.2364 2.57567 11.484 2.38319 11.8062C2.19071 12.1283 2.10568 12.5071 2.14119 12.8843C2.17287 13.2614 2.32156 13.6176 2.56495 13.8996C2.80835 14.1816 3.13334 14.3741 3.49119 14.4484L8.43767 15.4656V21.875C8.4375 22.2217 8.53665 22.5607 8.72255 22.8489C8.90845 23.1371 9.17271 23.3615 9.48181 23.4937C9.68638 23.5791 9.90466 23.6236 10.1252 23.625C10.3468 23.6258 10.5664 23.5807 10.771 23.4924C10.9757 23.4042 11.1613 23.2745 11.317 23.1109L14.0592 20.2781L18.2041 24.0625C18.5101 24.3423 18.9035 24.4978 19.3115 24.5C19.4909 24.5038 19.6695 24.4741 19.8388 24.4125C20.1172 24.3211 20.3677 24.156 20.5656 23.9335C20.7635 23.711 20.902 23.4388 20.9674 23.1437L24.933 5.18433C25.0023 4.87443 24.9888 4.5508 24.8941 4.24824C24.7993 3.94568 24.6268 3.67564 24.3951 3.46714ZM9.08103 13.814L3.82869 12.7312L18.5521 6.72652L9.08103 13.814ZM10.1252 21.875V16.6906L12.783 19.1187L10.1252 21.875ZM19.322 22.75L10.6314 14.8203L23.1506 5.44683L19.322 22.75Z" fill="#CC5404"/>
</svg>
