<svg width="39" height="37" viewBox="0 0 39 37" fill="none" xmlns="http://www.w3.org/2000/svg">
<path d="M19.75 1C16.0416 1 12.4165 2.03094 9.33307 3.96245C6.24965 5.89396 3.84641 8.63929 2.42727 11.8513C1.00812 15.0633 0.636812 18.5976 1.36028 22.0074C2.08376 25.4173 3.86952 28.5494 6.49176 31.0077C9.11399 33.4661 12.4549 35.1402 16.0921 35.8185C19.7292 36.4967 23.4992 36.1486 26.9253 34.8182C30.3514 33.4877 33.2798 31.2347 35.3401 28.344C37.4003 25.4533 38.5 22.0547 38.5 18.5781C38.4945 13.9177 36.5174 9.4496 33.0022 6.15417C29.4871 2.85874 24.7211 1.00512 19.75 1ZM8.66313 30.9566C9.77596 29.1196 11.3883 27.5919 13.3358 26.529C15.2833 25.4662 17.4965 24.9063 19.75 24.9063C22.0035 24.9063 24.2167 25.4662 26.1642 26.529C28.1118 27.5919 29.7241 29.1196 30.8369 30.9566C27.7336 33.4065 23.807 34.75 19.75 34.75C15.693 34.75 11.7664 33.4065 8.66313 30.9566ZM31.9694 29.9811C30.1062 27.0607 27.1192 24.9216 23.6238 24.0045C25.2489 23.1942 26.5384 21.8977 27.287 20.3212C28.0355 18.7446 28.2002 16.9787 27.7549 15.3043C27.3095 13.6299 26.2796 12.1433 24.8291 11.0809C23.3786 10.0185 21.5907 9.44137 19.75 9.44137C17.9093 9.44137 16.1215 10.0185 14.6709 11.0809C13.2204 12.1433 12.1905 13.6299 11.7452 15.3043C11.2998 16.9787 11.4645 18.7446 12.213 20.3212C12.9616 21.8977 14.2511 23.1942 15.8763 24.0045C12.3809 24.9216 9.39384 27.0607 7.53063 29.9811C5.12435 27.7171 3.48757 24.8354 2.82697 21.7C2.16637 18.5645 2.51157 15.3159 3.81899 12.3642C5.12641 9.41256 7.33742 6.89027 10.1728 5.11583C13.0082 3.3414 16.3409 2.3944 19.75 2.3944C23.1591 2.3944 26.4918 3.3414 29.3272 5.11583C32.1626 6.89027 34.3736 9.41256 35.681 12.3642C36.9884 15.3159 37.3337 18.5645 36.6731 21.7C36.0125 24.8354 34.3757 27.7171 31.9694 29.9811ZM19.75 23.5C18.415 23.5 17.1099 23.1289 15.9999 22.4335C14.8899 21.7382 14.0247 20.7499 13.5138 19.5935C13.0029 18.4372 12.8693 17.1649 13.1297 15.9373C13.3902 14.7098 14.033 13.5822 14.977 12.6972C15.921 11.8122 17.1238 11.2095 18.4331 10.9653C19.7425 10.7212 21.0997 10.8465 22.3331 11.3254C23.5665 11.8044 24.6207 12.6155 25.3624 13.6562C26.1041 14.6968 26.5 15.9203 26.5 17.1719C26.5 18.8502 25.7888 20.4598 24.523 21.6465C23.2571 22.8333 21.5402 23.5 19.75 23.5Z" fill="#CC5404" stroke="#CC5404"/>
</svg>
